<?xml version="1.0" encoding="utf-8"?>
<svg width="410" height="404" viewBox="0 0 410 404" fill="none" xmlns="http://www.w3.org/2000/svg">
  <path d="M 399.641 16.409 L 215.643 345.429 C 211.844 352.222 202.084 352.262 198.228 345.502 L 10.582 16.44 C 6.381 9.074 12.68 0.151 21.028 1.643 L 205.223 34.567 C 206.398 34.777 207.601 34.775 208.776 34.56 L 389.119 1.69 C 397.439 0.174 403.768 9.028 399.641 16.409 Z" transform="matrix(-1, 0, 0, -1, 410.181036, 352.025946)" fill="url(#paint0_linear)"/>
  <path d="M 234.765 66.33 L 98.601 93.011 C 96.363 93.449 94.706 95.346 94.571 97.622 L 86.195 239.086 C 85.998 242.418 89.058 245.004 92.31 244.254 L 130.22 235.505 C 133.767 234.687 136.972 237.811 136.243 241.378 L 124.98 296.531 C 124.222 300.243 127.707 303.417 131.332 302.316 L 154.747 295.202 C 158.377 294.1 161.865 297.283 161.097 300.998 L 143.198 387.631 C 142.078 393.05 149.286 396.005 152.292 391.359 L 154.3 388.256 L 265.254 166.828 C 267.112 163.12 263.908 158.893 259.836 159.679 L 220.814 167.21 C 217.147 167.917 214.027 164.502 215.062 160.914 L 240.531 72.623 C 241.567 69.029 238.436 65.611 234.765 66.33 Z" fill="url(#paint1_linear)" transform="matrix(-1, 0, 0, -1, 351.980896, 459.89798)"/>
  <defs>
    <linearGradient id="paint0_linear" x1="6.00017" y1="32.9999" x2="235" y2="344" gradientUnits="userSpaceOnUse" gradientTransform="matrix(1, 0, 0, 1, -0.000237, -43.115662)">
      <stop style="stop-color: rgb(4, 120, 87);"/>
      <stop offset="1" style="stop-color: rgb(52, 211, 153);"/>
    </linearGradient>
    <linearGradient id="paint1_linear" x1="194.651" y1="8.81818" x2="236.076" y2="292.989" gradientUnits="userSpaceOnUse" gradientTransform="matrix(0.997594, -0.042805, 0.019327, 0.92717, -81.719979, 58.900735)">
      <stop style="stop-color: rgb(17, 24, 39);"/>
      <stop offset="0.283" style="stop-color: rgb(120, 53, 15);"/>
      <stop offset="1" style="stop-color: rgb(180, 83, 9);"/>
    </linearGradient>
  </defs>
</svg>